<?xml version="1.0" encoding="UTF-8"?>
<svg width="22px" height="22px" viewBox="0 0 22 22" version="1.1" xmlns="http://www.w3.org/2000/svg" xmlns:xlink="http://www.w3.org/1999/xlink">
    <!-- Generator: Sketch 53.2 (72643) - https://sketchapp.com -->
    <title>添加定时@2x</title>
    <desc>Created with Sketch.</desc>
    <g id="Page-1" stroke="none" stroke-width="1" fill="none" fill-rule="evenodd">
        <g id="图标" transform="translate(-29.000000, -605.000000)">
            <g id="分组" transform="translate(17.000000, 87.000000)">
                <g id="添加定时" transform="translate(12.000000, 518.000000)">
                    <circle id="icon" stroke="#4994F5" cx="11" cy="11" r="10.5"></circle>
                    <path d="M11.75,10.25 L16.25,10.25 C16.6642136,10.25 17,10.5857864 17,11 C17,11.4142136 16.6642136,11.75 16.25,11.75 L11.75,11.75 L11.75,16.25 C11.75,16.6642136 11.4142136,17 11,17 C10.5857864,17 10.25,16.6642136 10.25,16.25 L10.25,11.75 L5.75,11.75 C5.33578644,11.75 5,11.4142136 5,11 C5,10.5857864 5.33578644,10.25 5.75,10.25 L10.25,10.25 L10.25,5.75 C10.25,5.33578644 10.5857864,5 11,5 C11.4142136,5 11.75,5.33578644 11.75,5.75 L11.75,10.25 Z" id="icon_add" fill="#4994F5"></path>
                </g>
            </g>
        </g>
    </g>
</svg>