<?xml version="1.0" encoding="UTF-8"?>
<svg width="120px" height="103px" viewBox="0 0 120 103" version="1.1" xmlns="http://www.w3.org/2000/svg" xmlns:xlink="http://www.w3.org/1999/xlink">
    <title>No feedback@2x</title>
    <g id="feedback" stroke="none" stroke-width="1" fill="none" fill-rule="evenodd">
        <g id="-feedback-空" transform="translate(-128.000000, -156.000000)">
            <g id="No-feedback" transform="translate(130.000000, 158.000000)">
                <g id="Group">
                    <path d="M90.984118,7.56611102 C80.4496304,0.983432591 68.5332783,-1.55835854 57.0432015,-0.478984684 C45.4716493,0.608042932 34.3326018,5.36848695 25.4727657,13.3732196 L12.2325004,5.1002979 C10.6036842,4.08250058 8.71650345,3.8212634 6.98207905,4.22168682 C5.24765466,4.62211024 3.66598665,5.68419426 2.64817823,7.31302824 C1.6303698,8.94186221 1.36913262,10.829043 1.76955604,12.5634674 C2.16997946,14.2978918 3.23206348,15.8795598 4.86089746,16.8973682 L16.3378852,24.0686468 C16.1323931,24.3831641 15.9296145,24.7004737 15.7295999,25.020564 C15.0692556,26.0773356 14.4493593,27.1478992 13.8694876,28.2304355 L6.23912054,23.4618988 C5.16917545,22.7933229 3.92956653,22.6217273 2.79029679,22.8847485 C1.65102706,23.1477696 0.612096505,23.8454075 -0.0564586331,24.9153194 C-0.725013771,25.9852313 -0.896609381,27.2248402 -0.633588238,28.3641099 C-0.370567095,29.5033797 0.327070801,30.5423102 1.39698267,31.2108653 L10.2071435,36.7156045 C9.79262619,37.95516 9.42483172,39.2035227 9.10321165,40.4583081 L7.40331218,39.3957042 C6.594126,38.8900685 5.65671728,38.7603056 4.79518639,38.9592057 C3.93365549,39.1581058 3.14800242,39.6856688 2.64243215,40.4947504 C2.13686188,41.3038319 2.007099,42.2412407 2.20599908,43.1027716 C2.40489916,43.9643025 2.9324622,44.7499555 3.74154376,45.2555258 L7.75469352,47.7640826 C6.06592686,62.4864692 10.4348607,77.4543824 20.0083476,88.9595496 L103.869005,88.9589587 C105.456946,87.0539123 106.934331,85.0183849 108.285569,82.8559525 C116.287124,70.0507878 118.351404,55.22129 115.220738,41.5968493 C112.089895,27.9716375 103.76358,15.5516053 90.984118,7.56611102 Z" id="Combined-Shape" stroke="#BFBFBF" stroke-width="1.5" fill="#F5F5F5"></path>
                    <line x1="5.85" y1="89.1034483" x2="114.66629" y2="89.1034483" id="Path-3" stroke="#BFBFBF" stroke-width="2" stroke-linecap="round"></line>
                    <line x1="23.3846079" y1="93.7931034" x2="57.33" y2="93.7931034" id="Path-3-Copy" stroke="#BFBFBF" stroke-width="2" stroke-linecap="round"></line>
                    <line x1="71.3546079" y1="93.7931034" x2="97.1365613" y2="93.7931034" id="Path-3-Copy-2" stroke="#BFBFBF" stroke-width="2" stroke-linecap="round"></line>
                    <line x1="56.16" y1="99.6551724" x2="87.7765613" y2="99.6551724" id="Path-3-Copy-3" stroke="#BFBFBF" stroke-width="2" stroke-linecap="round"></line>
                    <line x1="37.44" y1="99.6551724" x2="49.14" y2="99.6551724" id="Path-3-Copy-4" stroke="#BFBFBF" stroke-width="2" stroke-linecap="round"></line>
                    <ellipse id="Oval-4" fill="#BBBBBB" cx="64.35" cy="93.7931034" rx="1.17" ry="1.17241379"></ellipse>
                </g>
                <path d="M51.1378029,43.0580988 C50.5306965,43.0580988 50.017983,42.5451274 50.017983,41.937763 C50.017983,41.3306566 50.5306965,40.8179431 51.1378029,40.8179431 L69.2194647,40.8179431 C69.827087,40.8179431 70.3398005,41.3306566 70.3398005,41.937763 C70.3398005,42.5451274 69.827087,43.0580988 69.2194647,43.0580988 L51.1378029,43.0580988 Z M51.1378029,51.4105834 C50.5306965,51.4105834 50.017983,50.897612 50.017983,50.2902477 C50.017983,49.6831413 50.5306965,49.1701699 51.1378029,49.1701699 L69.2194647,49.1701699 C69.827087,49.1701699 70.3398005,49.6831413 70.3398005,50.2902477 C70.3398005,50.897612 69.827087,51.4105834 69.2194647,51.4105834 L51.1378029,51.4105834 Z M51.1378029,59.7625523 C50.5306965,59.7625523 50.017983,59.2495809 50.017983,58.6422166 C50.017983,58.0348522 50.5306965,57.5216229 51.1378029,57.5216229 L64.0760817,57.5216229 L64.3339859,57.5223966 C64.9741041,57.5223966 65.4955863,58.024794 65.4955863,58.6422166 C65.4955863,59.2495809 64.9828728,59.7625523 64.3757664,59.7625523 L51.1378029,59.7625523 Z M45.9180803,31.2819362 C45.0314057,31.2819362 44.2819362,32.0314057 44.2819362,32.9180803 L44.2819362,69.1239581 C44.2899312,70.0191435 45.0228949,70.7518493 45.9157591,70.7601022 L76.3371042,70.7601022 L76.1271702,70.3778882 C75.6430841,69.4966297 75.4073596,68.6220766 75.4073596,67.7044535 L75.4073596,32.9180803 C75.4073596,32.0314057 74.658148,31.2819362 73.7712155,31.2819362 L45.9180803,31.2819362 Z M77.6472574,67.7044535 C77.6472574,69.3893415 79.018276,70.7603601 80.7034219,70.7603601 C82.3883099,70.7603601 83.7593285,69.3893415 83.7593285,67.7044535 L83.7180638,58.640927 C83.7180638,57.7552841 82.9685943,57.0058146 82.0819197,57.0058146 L77.6472574,57.0058146 L77.6472574,67.7044535 Z M45.9180803,73.0425542 C43.757617,73.0425542 42,71.2846793 42,69.1239581 L42,32.9180803 C42,30.757617 43.757617,29 45.9180803,29 L73.7294351,29 C75.8898984,29 77.6472574,30.757617 77.6472574,32.9180803 L77.6472574,54.7241363 L82.0819197,54.72491 C84.242383,54.72491 86,56.5010961 86,58.6837391 L86,67.7457182 C86,70.666483 83.6239288,73.0425542 80.7039377,73.0425542 L45.9180803,73.0425542 Z" id="Fill-1" fill="#BFBFBF"></path>
            </g>
        </g>
    </g>
</svg>