<?xml version="1.0" encoding="UTF-8"?>
<svg width="120px" height="103px" viewBox="0 0 120 103" version="1.1" xmlns="http://www.w3.org/2000/svg" xmlns:xlink="http://www.w3.org/1999/xlink">
    <title>No network@2x</title>
    <g id="feedback" stroke="none" stroke-width="1" fill="none" fill-rule="evenodd">
        <g id="网络崩溃" transform="translate(-128.000000, -156.000000)">
            <g id="No-network" transform="translate(130.000000, 158.000000)">
                <g id="Group">
                    <path d="M90.984118,7.56611102 C80.4496304,0.983432591 68.5332783,-1.55835854 57.0432015,-0.478984684 C45.4716493,0.608042932 34.3326018,5.36848695 25.4727657,13.3732196 L12.2325004,5.1002979 C10.6036842,4.08250058 8.71650345,3.8212634 6.98207905,4.22168682 C5.24765466,4.62211024 3.66598665,5.68419426 2.64817823,7.31302824 C1.6303698,8.94186221 1.36913262,10.829043 1.76955604,12.5634674 C2.16997946,14.2978918 3.23206348,15.8795598 4.86089746,16.8973682 L16.3378852,24.0686468 C16.1323931,24.3831641 15.9296145,24.7004737 15.7295999,25.020564 C15.0692556,26.0773356 14.4493593,27.1478992 13.8694876,28.2304355 L6.23912054,23.4618988 C5.16917545,22.7933229 3.92956653,22.6217273 2.79029679,22.8847485 C1.65102706,23.1477696 0.612096505,23.8454075 -0.0564586331,24.9153194 C-0.725013771,25.9852313 -0.896609381,27.2248402 -0.633588238,28.3641099 C-0.370567095,29.5033797 0.327070801,30.5423102 1.39698267,31.2108653 L10.2071435,36.7156045 C9.79262619,37.95516 9.42483172,39.2035227 9.10321165,40.4583081 L7.40331218,39.3957042 C6.594126,38.8900685 5.65671728,38.7603056 4.79518639,38.9592057 C3.93365549,39.1581058 3.14800242,39.6856688 2.64243215,40.4947504 C2.13686188,41.3038319 2.007099,42.2412407 2.20599908,43.1027716 C2.40489916,43.9643025 2.9324622,44.7499555 3.74154376,45.2555258 L7.75469352,47.7640826 C6.06592686,62.4864692 10.4348607,77.4543824 20.0083476,88.9595496 L103.869005,88.9589587 C105.456946,87.0539123 106.934331,85.0183849 108.285569,82.8559525 C116.287124,70.0507878 118.351404,55.22129 115.220738,41.5968493 C112.089895,27.9716375 103.76358,15.5516053 90.984118,7.56611102 Z" id="Combined-Shape" stroke="#BFBFBF" stroke-width="1.5" fill="#F5F5F5"></path>
                    <line x1="5.85" y1="89.1034483" x2="114.66629" y2="89.1034483" id="Path-3" stroke="#BFBFBF" stroke-width="2" stroke-linecap="round"></line>
                    <line x1="23.3846079" y1="93.7931034" x2="57.33" y2="93.7931034" id="Path-3-Copy" stroke="#BFBFBF" stroke-width="2" stroke-linecap="round"></line>
                    <line x1="71.3546079" y1="93.7931034" x2="97.1365613" y2="93.7931034" id="Path-3-Copy-2" stroke="#BFBFBF" stroke-width="2" stroke-linecap="round"></line>
                    <line x1="56.16" y1="99.6551724" x2="87.7765613" y2="99.6551724" id="Path-3-Copy-3" stroke="#BFBFBF" stroke-width="2" stroke-linecap="round"></line>
                    <line x1="37.44" y1="99.6551724" x2="49.14" y2="99.6551724" id="Path-3-Copy-4" stroke="#BFBFBF" stroke-width="2" stroke-linecap="round"></line>
                    <ellipse id="Oval-4" fill="#BBBBBB" cx="64.35" cy="93.7931034" rx="1.17" ry="1.17241379"></ellipse>
                </g>
                <path d="M51.1099509,58.6909091 C50.6578841,58.6909091 50.2375604,58.4665176 49.9855304,58.0902513 C48.3655331,55.6717485 47.511477,52.8545402 47.5155628,49.9431969 C47.5109297,47.0293909 48.3652594,44.2113617 49.9855304,41.7925852 C50.2378341,41.4182344 50.6597996,41.1938429 51.113782,41.1938429 C51.3814099,41.1938429 51.6416494,41.2729272 51.8657672,41.4226128 C52.4836649,41.8377371 52.650043,42.6813946 52.235466,43.301755 C50.9159343,45.2733903 50.2200469,47.5701197 50.2233307,49.9429233 C50.2200469,52.3146323 50.9159343,54.611088 52.235466,56.5832706 C52.5041885,56.9841652 52.5386682,57.501634 52.3257699,57.9342718 C52.1128716,58.3671833 51.6818756,58.6558821 51.2008021,58.6876253 C51.1704272,58.6898145 51.1397786,58.6909091 51.1099509,58.6909091 L51.1099509,58.6909091 Z M73.1348003,58.7355137 C72.6427808,58.707328 72.2049437,58.4131562 71.9917717,57.9684778 C71.7788734,57.5235259 71.8248463,56.9981213 72.111356,56.5972267 C73.4421072,54.611088 74.1371736,52.314085 74.1317007,49.9410078 C74.1363527,47.5712143 73.4410126,45.2750322 72.1209337,43.3031233 C71.8355186,42.8937456 71.7941977,42.3718984 72.0065487,41.9318721 C72.2191734,41.4921195 72.6540004,41.2001368 73.1416415,41.1697619 C73.1701009,41.1678463 73.1982866,41.1670254 73.2261988,41.1670254 C73.687296,41.1670254 74.111998,41.3982581 74.3626598,41.7851967 C75.9873091,44.2116353 76.8416388,47.0296645 76.8375577,49.9415551 C76.8427334,52.8550875 75.9884037,55.6731167 74.3673118,58.0921668 C74.1092615,58.5015445 73.6810021,58.7379766 73.21279,58.7379766 C73.21279,58.7379766 73.1607968,58.7371556 73.1348003,58.7355137 L73.1348003,58.7355137 Z M81.6969789,64.3521431 C81.42853,64.3521431 81.1680169,64.2727852 80.9438991,64.1228259 C80.3339372,63.7134482 80.1596233,62.9045441 80.5471092,62.2808999 C82.9390681,58.7092435 84.2052384,54.53173 84.1983972,50.2152033 C84.206333,45.8986765 82.9401627,41.7200684 80.5369842,38.133635 C80.253211,37.7250783 80.2127111,37.2026839 80.425883,36.7629312 C80.639055,36.3234522 81.0744293,36.0320168 81.562344,36.0024628 C81.5897088,36.0008209 81.6168,36 81.6441648,36 C82.1063566,36 82.5318796,36.2320537 82.7819941,36.6209078 C83.677371,37.9579529 84.438113,39.3803763 85.0480748,40.8567083 C86.2811336,43.8318116 86.9061814,46.9806815 86.9061814,50.2162979 C86.9143556,55.0727325 85.4902903,59.7715458 82.787467,63.8051204 C82.5441938,64.1419813 82.1323532,64.3521431 81.6969789,64.3521431 L81.6969789,64.3521431 Z M43.2420177,64.4074201 C43.154724,64.4074201 43.0666092,64.3986633 42.9806837,64.3819708 C42.6315086,64.3127378 42.3170868,64.1028496 42.1189655,63.8059413 C39.4188787,59.7704513 37.9950871,55.0716379 38,50.2168452 C37.9956344,45.3620524 39.419426,40.6635127 42.11705,36.6285699 C42.36908,36.2517563 42.7896773,36.0270912 43.2422914,36.0270912 C43.2718454,36.0270912 43.3019467,36.0279121 43.3317743,36.0298277 C43.8131215,36.0615708 44.2446648,36.3499961 44.4575631,36.7826339 C44.670735,37.2152717 44.636529,37.7332877 44.3686274,38.1341823 C41.9681853,41.721163 40.7031097,45.8986765 40.7096773,50.2149296 C40.7017415,54.5303618 41.9668171,58.7086962 44.3686274,62.2964978 C44.5675696,62.5931325 44.6420019,62.9633785 44.5730426,63.3133746 C44.5038096,63.663097 44.2944687,63.9775187 43.9983814,64.1759137 C43.7731689,64.3277884 43.5123822,64.4074201 43.2422914,64.4074201 L43.2420177,64.4074201 Z M58.9784314,65.0067096 L66.4731084,65.0067096 L62.7271381,55.0281279 L58.9784314,65.0067096 Z M54.76507,76.2292961 L70.6900272,76.2292961 L67.4919006,67.7147323 L57.9634702,67.7147323 L54.76507,76.2292961 Z M49.4064908,88 C48.9962922,88 48.612911,87.8174766 48.3548608,87.4992238 C48.0467329,87.1194001 47.9673749,86.6008367 48.1479827,86.1465807 L60.3411994,53.6765794 L60.0440175,53.4278332 C59.0761238,52.6172872 58.5214389,51.4466202 58.5214389,50.2162979 C58.5214389,47.897403 60.4082432,46.0105986 62.7268645,46.0105986 C65.0457593,46.0105986 66.9322901,47.897403 66.9322901,50.2162979 C66.9292799,51.4619445 66.3751423,52.6320642 65.4129952,53.424823 L65.1108876,53.6735693 L77.304378,86.1389186 C77.564891,86.8378161 77.2096957,87.6209972 76.5118928,87.8828786 C76.3591971,87.9397974 76.1991129,87.9688041 76.0376604,87.9688041 L76.0373868,87.9688041 C75.4747661,87.9688041 74.9638649,87.614977 74.7654699,87.0882042 L71.7049884,78.9351296 L53.7470986,78.9351296 L50.6857962,87.0884778 C50.5191444,87.5591527 50.1179762,87.8971083 49.635808,87.980571 C49.5605548,87.9934324 49.4831123,88 49.4064908,88 L49.4064908,88 Z" id="Fill-1" fill="#BFBFBF"></path>
            </g>
        </g>
    </g>
</svg>