<?xml version="1.0" encoding="UTF-8"?>
<svg width="20px" height="20px" viewBox="0 0 20 20" version="1.1" xmlns="http://www.w3.org/2000/svg" xmlns:xlink="http://www.w3.org/1999/xlink">
    <!-- Generator: Sketch 53.2 (72643) - https://sketchapp.com -->
    <title>icon_tab_home_selected</title>
    <desc>Created with Sketch.</desc>
    <defs>
        <polygon id="path-1" points="0 0 20 0 20 20 0 20"></polygon>
    </defs>
    <g id="视觉稿" stroke="none" stroke-width="1" fill="none" fill-rule="evenodd">
        <g id="A04帮助-RM-nini3" transform="translate(-45.000000, -32.000000)">
            <g id="top">
                <g id="icon_tab_home_selected" transform="translate(45.000000, 32.000000)">
                    <mask id="mask-2" fill="white">
                        <use xlink:href="#path-1"></use>
                    </mask>
                    <g id="Clip-2"></g>
                    <path d="M18.2788571,8.03517143 C18.4470571,8.18677143 18.5428571,8.40257143 18.5428571,8.62897143 L18.5428571,17.6126452 C18.5428571,18.0544452 18.1846571,18.4126452 17.7428571,18.4126452 L12.9428571,18.4126452 C12.5010571,18.4126452 12.1428571,18.0544452 12.1428571,17.6126452 L12.1428571,13.4126452 C12.1428571,12.9708452 11.7846571,12.6126452 11.3428571,12.6126452 L10.3428571,12.6126452 L9.34285714,12.6126452 C8.90105714,12.6126452 8.54285714,12.9708452 8.54285714,13.4126452 L8.54285714,17.6126452 C8.54285714,18.0544452 8.18465714,18.4126452 7.74285714,18.4126452 L2.94285714,18.4126452 C2.50105714,18.4126452 2.14285714,18.0544452 2.14285714,17.6126452 L2.14285714,8.62897143 C2.14285714,8.40257143 2.23885714,8.18677143 2.40685714,8.03517143 L9.27085714,1.84077143 C9.87985714,1.29117143 10.8058571,1.29117143 11.4148571,1.84077143 L18.2788571,8.03517143 Z" id="Fill-1" fill="#111111" mask="url(#mask-2)"></path>
                </g>
            </g>
        </g>
    </g>
</svg>