<?xml version="1.0" encoding="UTF-8"?>
<svg width="12px" height="12px" viewBox="0 0 12 12" version="1.1" xmlns="http://www.w3.org/2000/svg" xmlns:xlink="http://www.w3.org/1999/xlink">
    <title>官方回复</title>
    <g id="feedback" stroke="none" stroke-width="1" fill="none" fill-rule="evenodd">
        <g id="-feedback-list" transform="translate(-94.000000, -222.000000)">
            <g id="官方回复" transform="translate(94.000000, 222.000000)">
                <circle id="椭圆形" fill="#5297FF" cx="6" cy="6" r="6"></circle>
                <path d="M2.90547414,4 L3.81073224,4 C3.99846905,4 4.17038492,4.10516452 4.25587834,4.27230514 L5.83491662,7.3593434 C5.88521758,7.45768236 6.00571404,7.49662486 6.104053,7.4463239 C6.14183714,7.42699709 6.17249377,7.39615192 6.19158856,7.35825 L7.74489427,4.27503864 C7.82985776,4.10639162 8.00258784,4 8.19142802,4 L9.09457581,4 L9.09457581,4 L6.965455,8.39494731 C6.78619213,8.76498308 6.41119605,9 6.00002497,9 C5.5888539,9 5.21385782,8.76498308 5.03459495,8.39494731 L2.90547414,4 L2.90547414,4 Z" id="V" fill="#FFFFFF" fill-rule="nonzero"></path>
            </g>
        </g>
    </g>
</svg>